ffmpeg version 3.4.8-0ubuntu0.2 Copyright (c) 2000-2020 the FFmpeg developers
  built with gcc 7 (Ubuntu 7.5.0-3ubuntu1~18.04)
  configuration: --prefix=/usr --extra-version=0ubuntu0.2 --toolchain=hardened --libdir=/usr/lib/x86_64-linux-gnu --incdir=/usr/include/x86_64-linux-gnu --enable-gpl --disable-stripping --enable-avresample --enable-avisynth --enable-gnutls --enable-ladspa --enable-libass --enable-libbluray --enable-libbs2b --enable-libcaca --enable-libcdio --enable-libflite --enable-libfontconfig --enable-libfreetype --enable-libfribidi --enable-libgme --enable-libgsm --enable-libmp3lame --enable-libmysofa --enable-libopenjpeg --enable-libopenmpt --enable-libopus --enable-libpulse --enable-librubberband --enable-librsvg --enable-libshine --enable-libsnappy --enable-libsoxr --enable-libspeex --enable-libssh --enable-libtheora --enable-libtwolame --enable-libvorbis --enable-libvpx --enable-libwavpack --enable-libwebp --enable-libx265 --enable-libxml2 --enable-libxvid --enable-libzmq --enable-libzvbi --enable-omx --enable-openal --enable-opengl --enable-sdl2 --enable-libdc1394 --enable-libdrm --enable-libiec61883 --enable-chromaprint --enable-frei0r --enable-libopencv --enable-libx264 --enable-shared
  libavutil      55. 78.100 / 55. 78.100
  libavcodec     57.107.100 / 57.107.100
  libavformat    57. 83.100 / 57. 83.100
  libavdevice    57. 10.100 / 57. 10.100
  libavfilter     6.107.100 /  6.107.100
  libavresample   3.  7.  0 /  3.  7.  0
  libswscale      4.  8.100 /  4.  8.100
  libswresample   2.  9.100 /  2.  9.100
  libpostproc    54.  7.100 / 54.  7.100
[rawvideo @ 0x564ae7b9da20] Estimating duration from bitrate, this may be inaccurate
Input #0, rawvideo, from '../../SVC-Encoder-20220109T061506Z-001/SVC-Encoder/Dataset/RollerCoaster/ERP_8x8/tile_yuv/Tile_49_480x240.yuv':
  Duration: 00:00:10.00, start: 0.000000, bitrate: 41472 kb/s
    Stream #0:0: Video: rawvideo (I420 / 0x30323449), yuv420p, 480x240, 41472 kb/s, 30 tbr, 30 tbn, 30 tbc
Stream mapping:
  Stream #0:0 -> #0:0 (rawvideo (native) -> h264 (libx264))
Press [q] to stop, [?] for help
[libx264 @ 0x564ae7baac60] using cpu capabilities: MMX2 SSE2Fast LZCNT SSSE3 SSE4.2 AVX
[libx264 @ 0x564ae7baac60] profile High, level 2.1
Output #0, rawvideo, to 'RollerCoaster_Tile_49_480x240_x264_QP_28.h264':
  Metadata:
    encoder         : Lavf57.83.100
    Stream #0:0: Video: h264 (libx264), yuv420p, 480x240, q=-1--1, 30 fps, 30 tbn, 30 tbc
    Metadata:
      encoder         : Lavc57.107.100 libx264
    Side data:
      cpb: bitrate max/min/avg: 0/0/0 buffer size: 0 vbv_delay: -1
frame=  198 fps=0.0 q=34.0 PSNR=Y:nan U:nan V:nan *:nan size=      51kB time=00:00:05.16 bitrate=  81.0kbits/s speed=10.3x    frame=  300 fps=0.0 q=34.0 LPSNR=Y:inf U:inf V:inf *:inf size=      93kB time=00:00:09.93 bitrate=  76.9kbits/s speed=12.4x    
video:93kB audio:0kB subtitle:0kB other streams:0kB global headers:0kB muxing overhead: 0.000000%
[libx264 @ 0x564ae7baac60] frame I:2     Avg QP:25.23  size:  9895  PSNR Mean Y:44.23 U:47.95 V:45.72 Avg:44.91 Global:44.90
[libx264 @ 0x564ae7baac60] frame P:76    Avg QP:26.35  size:   626  PSNR Mean Y:42.77 U:47.65 V:45.66 Avg:43.70 Global:43.68
[libx264 @ 0x564ae7baac60] frame B:222   Avg QP:33.43  size:   127  PSNR Mean Y:42.48 U:47.53 V:45.50 Avg:43.44 Global:43.42
[libx264 @ 0x564ae7baac60] consecutive B-frames:  1.0%  0.7%  1.0% 97.3%
[libx264 @ 0x564ae7baac60] mb I  I16..4: 21.6% 59.1% 19.3%
[libx264 @ 0x564ae7baac60] mb P  I16..4:  0.8%  0.2%  0.0%  P16..4: 38.0%  8.1%  1.3%  0.0%  0.0%    skip:51.5%
[libx264 @ 0x564ae7baac60] mb B  I16..4:  0.0%  0.0%  0.0%  B16..8: 26.1%  0.4%  0.0%  direct: 0.0%  skip:73.6%  L0:40.4% L1:59.5% BI: 0.1%
[libx264 @ 0x564ae7baac60] 8x8 transform intra:48.6% inter:83.6%
[libx264 @ 0x564ae7baac60] coded y,uvDC,uvAC intra: 47.9% 57.6% 32.8% inter: 2.3% 3.1% 0.0%
[libx264 @ 0x564ae7baac60] i16 v,h,dc,p: 36% 39% 22%  4%
[libx264 @ 0x564ae7baac60] i8 v,h,dc,ddl,ddr,vr,hd,vl,hu:  7% 24% 25%  5%  5%  3% 14%  6% 11%
[libx264 @ 0x564ae7baac60] i4 v,h,dc,ddl,ddr,vr,hd,vl,hu:  9% 32% 10%  6%  5%  3% 19%  5% 10%
[libx264 @ 0x564ae7baac60] i8c dc,h,v,p: 48% 32%  9% 10%
[libx264 @ 0x564ae7baac60] Weighted P-Frames: Y:1.3% UV:0.0%
[libx264 @ 0x564ae7baac60] ref P L0: 57.4% 18.1% 17.6%  6.9%  0.1%
[libx264 @ 0x564ae7baac60] ref B L0: 72.2% 23.3%  4.5%
[libx264 @ 0x564ae7baac60] ref B L1: 78.7% 21.3%
[libx264 @ 0x564ae7baac60] PSNR Mean Y:42.568 U:47.563 V:45.546 Avg:43.516 Global:43.495 kb/s:76.36
